<svg width="71" height="83" viewBox="0 0 71 83" fill="none" xmlns="http://www.w3.org/2000/svg">
<path fill-rule="evenodd" clip-rule="evenodd" d="M34.2795 0.129594C32.6423 0.414412 32.4471 0.519421 19.5754 8.02883C17.6498 9.15214 13.3331 11.6597 9.98268 13.6011C6.63224 15.5424 3.53681 17.3776 3.10395 17.6794C2.08222 18.3918 1.30794 19.3066 0.77523 20.4315C0.114944 21.8257 0.0177568 22.5773 0.0663505 25.9193L0.109903 28.9207L4.38111 31.4328C6.73027 32.8145 9.11136 34.2311 9.6725 34.5808C10.2336 34.9306 10.7221 35.2167 10.7578 35.2167C10.7937 35.2167 10.8229 33.2526 10.8229 30.852C10.8229 26.5808 10.8298 26.474 11.1435 25.8646C11.3198 25.5221 11.6821 25.0633 11.9487 24.8449C12.5901 24.3194 34.156 11.9131 34.7076 11.7523C34.9867 11.6711 35.3766 11.6923 35.8279 11.8137C36.3906 11.9651 45.395 17.0384 47.4054 18.3369C47.6928 18.5225 48.0865 18.806 48.2476 18.806C48.4245 18.9378 48.1324 19.1306 47.4782 19.5035C47.0739 19.7343 45.0731 20.8924 43.032 22.0773C40.9909 23.2621 38.8168 24.5127 38.2006 24.8563C36.6449 25.7235 24.5248 32.6954 23.4965 33.3143C23.0344 33.5925 22.5776 33.9202 22.4812 34.0425C22.3498 34.2094 22.3062 35.3492 22.3062 38.6148V42.9649L22.6913 43.2401C23.0549 43.5002 28.6934 46.87 29.9733 47.5924C30.3007 47.7771 30.5685 47.9724 30.5685 48.0262C30.5685 48.1223 31.2592 48.553 34.4896 50.4707C35.3753 50.9967 36.7986 51.8492 37.6525 52.3655L39.2049 53.3041L41.5736 51.9104C42.8763 51.1438 45.2971 49.7306 46.9531 48.77C48.6091 47.8093 50.2584 46.8428 50.6185 46.6221L51.2729 46.2211L47.2575 43.8765C45.049 42.587 42.0447 40.8354 40.5813 39.9838C39.1179 39.1324 37.9206 38.3457 37.9206 38.2357C37.9206 38.1256 38.3617 37.7837 38.9008 37.4757C40.7381 36.4263 44.6367 34.1615 47.5833 32.4317C54.9393 28.1134 56.7035 27.1613 57.3495 27.1613C57.9461 27.1613 61.042 28.9808 61.6442 29.6854C62.1607 30.2895 62.216 30.9691 61.7939 31.5204C61.5421 31.8493 60.3309 32.6243 58.4363 33.6694C56.1437 34.9338 54.3752 36.0149 54.3752 36.1519C54.3752 36.2401 54.62 36.423 54.9191 36.5587C55.2182 36.6942 56.0216 37.1697 56.7046 37.6155C57.3874 38.0613 58.326 38.6731 58.7902 38.975C59.8402 39.6582 60.4515 40.298 60.7652 41.0425C60.9849 41.564 61.0045 42.225 60.9754 48.0911C60.9397 55.241 60.911 55.5044 60.0787 56.3276C59.83 56.5735 59.2669 56.9893 58.8273 57.2517C56.5248 58.626 55.0257 59.5047 52.4847 60.9692C50.9442 61.857 48.7701 63.1174 47.6533 63.7699C44.6915 65.5005 38.0742 69.2611 37.1243 69.7536C36.121 70.2738 35.2657 70.4107 34.5421 70.1668C34.2437 70.0661 32.55 69.1423 30.7785 68.1136C29.007 67.0851 26.6124 65.6973 25.457 65.0295C24.3017 64.3619 22.9153 63.5255 22.3762 63.1707C20.9192 62.2123 13.8959 58.089 13.7124 58.0844C13.6251 58.0823 13.1126 57.8022 12.5734 57.4622C11.8619 57.0132 11.4779 56.6526 11.173 56.147L10.7529 55.4503L10.7131 48.0921L10.6734 40.7339L8.40248 39.389C7.15347 38.6494 4.7847 37.2434 3.1384 36.2647C1.49209 35.2861 0.129228 34.5041 0.109763 34.5273C-0.00100851 34.6589 -0.0468014 59.5856 0.0624294 60.2997C0.338307 62.1044 1.31662 63.8283 2.65638 64.8706C3.25225 65.3342 6.91932 67.5227 14.1138 71.7081C15.3462 72.425 17.7409 73.8198 19.4353 74.8074C27.965 79.7791 32.252 82.2061 32.9492 82.458C33.5289 82.6675 34.1176 82.739 35.3298 82.7474C37.2911 82.7607 37.8589 82.5886 40.0209 81.3254C40.8682 80.8305 42.6014 79.8248 43.8722 79.0909C46.6771 77.471 48.7487 76.2681 51.4344 74.6993C58.8346 70.3768 64.8878 66.8507 66.2085 66.0929C68.007 65.0608 69.3653 63.7748 69.9523 62.5477C70.7972 60.7817 70.7598 61.756 70.7598 41.5229C70.7598 28.2994 70.7146 22.7859 70.6016 22.2415C70.2536 20.5661 69.2764 18.9115 68.1272 18.0524C67.4939 17.5789 65.0379 16.1112 59.0665 12.6376C57.5261 11.7414 55.1314 10.3468 53.745 9.53837C52.3586 8.7298 49.7434 7.2089 47.9334 6.15853C46.1234 5.10816 43.2876 3.45923 41.6316 2.49416C38.3543 0.584296 37.8175 0.338461 36.4501 0.120964C35.4246 -0.0420156 35.2622 -0.0414402 34.2795 0.129594Z" fill="#C3C3C3"/>
</svg>
