<svg width="35" height="39" viewBox="0 0 35 39" fill="none" xmlns="http://www.w3.org/2000/svg">
<path d="M34 26.9015V12.0985C33.9993 11.4495 33.8296 10.8121 33.5078 10.2503C33.186 9.68839 32.7235 9.22181 32.1667 8.89732L19.3333 1.49581C18.7759 1.171 18.1436 1 17.5 1C16.8564 1 16.2241 1.171 15.6667 1.49581L2.83333 8.89732C2.27648 9.22181 1.81396 9.68839 1.49218 10.2503C1.1704 10.8121 1.00066 11.4495 1 12.0985V26.9015C1.00066 27.5505 1.1704 28.1879 1.49218 28.7497C1.81396 29.3116 2.27648 29.7782 2.83333 30.1027L15.6667 37.5042C16.2241 37.829 16.8564 38 17.5 38C18.1436 38 18.7759 37.829 19.3333 37.5042L32.1667 30.1027C32.7235 29.7782 33.186 29.3116 33.5078 28.7497C33.8296 28.1879 33.9993 27.5505 34 26.9015Z" stroke="#CCCCCC" stroke-width="2" stroke-linecap="round" stroke-linejoin="round"/>
<path d="M17.5 26.9015C21.5501 26.9015 24.8333 23.5877 24.8333 19.5C24.8333 15.4123 21.5501 12.0985 17.5 12.0985C13.4499 12.0985 10.1667 15.4123 10.1667 19.5C10.1667 23.5877 13.4499 26.9015 17.5 26.9015Z" stroke="#CCCCCC" stroke-width="2" stroke-linecap="round" stroke-linejoin="round"/>
</svg>
