<svg width="36" height="35" viewBox="0 0 36 35" fill="none" xmlns="http://www.w3.org/2000/svg">
<path fill-rule="evenodd" clip-rule="evenodd" d="M17.6667 1C8.45833 1 1 8.45833 1 17.6667C1 25.0417 5.77083 31.2708 12.3958 33.4792C13.2292 33.625 13.5417 33.125 13.5417 32.6875C13.5417 32.2917 13.5208 30.9792 13.5208 29.5833C9.33333 30.3542 8.25 28.5625 7.91667 27.625C7.72917 27.1458 6.87484 24.5625 6.1665 24.1667C5.58317 23.8542 5.6665 23.6667 5.6665 23.6667C6.979 23.6459 8.4375 25.375 8.75 25.875C10.25 28.3958 12.6458 27.6875 13.6042 27.25C13.75 26.1667 14.1875 25.4375 14.6667 25.0208C10.9583 24.6042 7.08333 23.1667 7.08333 16.7917C7.08333 14.9792 7.72917 13.4792 8.79167 12.3125C8.625 11.8958 8.04167 10.1875 8.95833 7.89583C8.95833 7.89583 10.3542 7.45833 13.5417 9.60417C14.875 9.22917 16.2917 9.04167 17.7083 9.04167C19.125 9.04167 20.5417 9.22917 21.875 9.60417C25.0625 7.4375 26.4583 7.89583 26.4583 7.89583C27.375 10.1875 26.7917 11.8958 26.625 12.3125C27.6875 13.4792 28.3333 14.9583 28.3333 16.7917C28.3333 23.1875 24.4375 24.6042 20.7292 25.0208C21.3333 25.5417 21.8542 26.5417 21.8542 28.1042C21.8542 30.3333 21.8333 32.125 21.8333 32.6875C21.8333 33.125 22.1458 33.6458 22.9792 33.4792C26.2878 32.3622 29.1628 30.2358 31.1997 27.3992C33.2365 24.5627 34.3325 21.1588 34.3333 17.6667C34.3333 8.45833 26.875 1 17.6667 1Z" stroke="#CCCCCC" stroke-width="2" stroke-linejoin="round"/>
</svg>
